# xmcd
# Track frame offsets:
# 150
# 17576
# 28865
# 44220
#
# Disc length: 746 seconds
# Revision: 0
# Processed by: cddbd v1.5.2PL0 Copyright (c) Steve Scherf et al.
# Submitted via: VisiTrax 2.11.1.266 - For more info visit www.synapsa.com
#
DISCID=3002e804
DTITLE=Newey,  Richard - This Pair of Rusty Spurs
DYEAR=1900
DGENRE=Country
TTITLE0=This Pair of Rusty Spurs
TTITLE1=Burdekin River
TTITLE2=Dreams of Long Ago
TTITLE3=Raindrops My Guitar
EXTD=
EXTT0=
EXTT1=
EXTT2=
EXTT3=
PLAYORDER=
